<svg width="24" height="24" viewBox="0 0 24 24" fill="none" xmlns="http://www.w3.org/2000/svg">
<g clip-path="url(#clip0_6640_935)">
<path d="M14.1551 10.3202H12.0251V9.9302C12.0251 8.7002 11.0051 7.7002 9.74509 7.7002C8.48509 7.7002 7.4751 8.7002 7.4751 9.9302V10.7002C7.4751 11.0002 7.72509 11.2402 8.02509 11.2402C8.32509 11.2402 8.5751 11.0002 8.5751 10.7002V9.9302C8.5751 9.3002 9.1051 8.78019 9.7551 8.78019C10.4051 8.78019 10.9351 9.3002 10.9351 9.9302V10.3302C10.3251 10.4202 9.8651 10.9402 9.8651 11.5502V14.8102C9.8651 15.4902 10.4351 16.0502 11.1251 16.0502H14.1651C14.8651 16.0502 15.4251 15.4902 15.4251 14.8102V11.5502C15.4251 10.8702 14.8551 10.3102 14.1651 10.3102L14.1551 10.3202ZM14.3151 11.5602V14.8202C14.3151 14.9102 14.2351 14.9802 14.1451 14.9802H11.1051C11.0151 14.9802 10.9451 14.9002 10.9451 14.8202V11.5602C10.9451 11.4702 11.0251 11.4002 11.1051 11.4002H14.1451C14.2351 11.4002 14.3151 11.4702 14.3151 11.5602Z" fill="#282F3A"/>
<path d="M11.9451 4.58008C7.78514 4.58008 4.39514 7.89008 4.39514 11.9701C4.39514 16.0501 7.78514 19.3601 11.9451 19.3601C16.1051 19.3601 19.5051 16.0501 19.5051 11.9701C19.5051 7.89008 16.1151 4.58008 11.9451 4.58008ZM18.4051 11.9601C18.4051 15.4401 15.5051 18.2701 11.9451 18.2701C8.38514 18.2701 5.49514 15.4401 5.49514 11.9601C5.49514 8.48008 8.38514 5.66008 11.9451 5.66008C15.5051 5.66008 18.4051 8.49008 18.4051 11.9601Z" fill="#282F3A"/>
<path d="M22.6351 9.87008L22.0051 9.52008C21.9451 9.48008 21.9051 9.43008 21.8851 9.36008C21.8651 9.30008 21.8851 9.23008 21.9151 9.18008L22.2751 8.57008C22.7351 7.80008 22.7351 6.92008 22.2751 6.15008C21.8251 5.39008 21.0451 4.95008 20.1451 4.95008H19.4151C19.2751 4.95008 19.1551 4.83008 19.1551 4.69008V3.98008C19.1551 3.12008 18.7051 2.34008 17.9451 1.90008C17.1651 1.45008 16.2351 1.44008 15.4551 1.89008L14.8351 2.24008C14.7051 2.31008 14.5451 2.27008 14.4651 2.15008L14.1051 1.54008C13.6551 0.770078 12.8751 0.330078 11.9651 0.330078C11.0551 0.330078 10.2851 0.770078 9.8351 1.54008L9.47511 2.15008C9.40511 2.27008 9.23511 2.31008 9.11511 2.24008L8.4851 1.89008C7.6951 1.45008 6.7651 1.45008 5.9851 1.91008C5.2351 2.35008 4.7751 3.13008 4.7751 3.99008V4.70008C4.7751 4.84008 4.6651 4.96008 4.5151 4.96008H3.79511C2.88511 4.96008 2.1151 5.40008 1.6651 6.16008C1.2051 6.93008 1.2051 7.81008 1.6651 8.58008L2.0251 9.19008C2.0551 9.25008 2.0651 9.31008 2.0551 9.38008C2.0351 9.45008 1.99511 9.50008 1.93511 9.54008L1.31511 9.90008C0.535105 10.3401 0.0651076 11.1201 0.0751076 12.0001C0.0751076 12.8701 0.545105 13.6501 1.31511 14.0901L1.93511 14.4501C1.99511 14.4901 2.0451 14.5401 2.0551 14.6101C2.0751 14.6701 2.05511 14.7401 2.03511 14.8001L1.67511 15.4101C1.21511 16.1801 1.21511 17.0601 1.67511 17.8301C2.12511 18.6001 2.9051 19.0401 3.8051 19.0401H4.5251C4.6751 19.0401 4.78511 19.1501 4.78511 19.3001V20.0101C4.78511 20.0901 4.78511 20.1701 4.79511 20.2501C4.82511 20.5101 4.87511 20.7501 4.96511 20.9601C5.05511 21.1701 5.1851 21.3801 5.3751 21.5701C5.7451 21.9601 6.16511 22.2201 6.63511 22.3501C7.1251 22.4801 7.61511 22.4601 8.10511 22.2901C8.24511 22.2401 8.37511 22.1801 8.50511 22.1001L9.13511 21.7401C9.22511 21.6901 9.34511 21.7001 9.42511 21.7601C9.48511 21.8101 9.52511 21.8801 9.56511 21.9601V21.9801L9.6251 22.1001C9.7351 22.3101 9.8751 22.5801 10.1351 22.8401C10.3351 23.0501 10.5051 23.1901 10.6851 23.3001C11.0751 23.5401 11.5351 23.6701 12.0051 23.6701C12.0551 23.6701 12.1051 23.6701 12.1551 23.6701C12.6851 23.6401 13.1851 23.4501 13.5351 23.1501C13.6551 23.0401 13.7851 22.9401 13.8951 22.8101C14.0151 22.6701 14.1251 22.5101 14.2251 22.3401L14.3151 22.1801C14.3751 22.0801 14.4351 21.9801 14.4851 21.8801C14.5351 21.7901 14.5751 21.7401 14.6651 21.7201C14.7351 21.7001 14.8151 21.7101 14.8751 21.7401L15.5051 22.1001C16.1351 22.4501 16.8451 22.5301 17.5051 22.3101C17.5451 22.3101 17.5851 22.2801 17.6051 22.2701C17.7251 22.2301 17.8351 22.1701 17.9651 22.1001C18.0751 22.0401 18.1851 21.9701 18.3151 21.8601L18.3451 21.8401C18.4151 21.7901 18.4551 21.7401 18.5051 21.6901C18.5351 21.6601 18.5651 21.6201 18.6151 21.5801C18.8151 21.3801 19.0851 20.8201 19.1151 20.6501V20.6101C19.1451 20.5101 19.1851 20.3301 19.1951 20.1901C19.1951 20.1301 19.1951 20.0701 19.1951 20.0101V19.3001C19.1951 19.1601 19.3151 19.0401 19.4551 19.0401H20.1851C21.0951 19.0401 21.9051 18.5801 22.3451 17.8001C22.7751 17.0501 22.7651 16.1601 22.3251 15.4101L21.9651 14.7901C21.9351 14.7401 21.9251 14.6701 21.9351 14.6101C21.9551 14.5401 21.9951 14.4901 22.0551 14.4501L22.6851 14.0901C23.4651 13.6501 23.9251 12.8701 23.9251 12.0001C23.9251 11.1301 23.4651 10.3501 22.6851 9.91008L22.6351 9.87008ZM20.8151 14.2901C20.7251 14.6301 20.7751 14.9901 20.9551 15.3001L21.3251 15.9101C21.5751 16.3401 21.5751 16.8101 21.3251 17.2501C21.0751 17.6801 20.6551 17.9201 20.1351 17.9201H19.4051C18.6551 17.9201 18.0451 18.5201 18.0451 19.2601V19.9701C18.0451 20.4701 17.8051 20.8801 17.3651 21.1301C16.9251 21.3801 16.4351 21.3801 15.9951 21.1301L15.3651 20.7701C14.7151 20.4001 13.8851 20.6201 13.5051 21.2601L13.1451 21.8701C12.8851 22.3001 12.4651 22.5401 11.9551 22.5401C11.4451 22.5401 11.0251 22.3001 10.7751 21.8701L10.4151 21.2601C10.1651 20.8301 9.7051 20.5901 9.2351 20.5901C9.0051 20.5901 8.7751 20.6501 8.5551 20.7701L7.92511 21.1301C7.48511 21.3801 6.9951 21.3801 6.5551 21.1301C6.1151 20.8801 5.8751 20.4701 5.8751 19.9701V19.2601C5.8751 18.5201 5.2651 17.9201 4.5151 17.9201H3.78511C3.27511 17.9201 2.85511 17.6801 2.60511 17.2601C2.35511 16.8201 2.35511 16.3601 2.60511 15.9201L2.96511 15.3101C3.14511 15.0001 3.19511 14.6401 3.10511 14.3001C3.01511 13.9501 2.78511 13.6601 2.46511 13.4801L1.8351 13.1201C1.3951 12.8701 1.1551 12.4601 1.1551 11.9601C1.1551 11.4601 1.3951 11.0601 1.8351 10.8101L2.46511 10.4501C2.78511 10.2701 3.01511 9.98008 3.10511 9.63008C3.19511 9.29008 3.14511 8.93008 2.96511 8.63008L2.60511 8.02008C2.35511 7.59008 2.35511 7.12008 2.60511 6.68008C2.86511 6.25008 3.28511 6.01008 3.78511 6.01008H4.5151C5.2651 6.01008 5.8751 5.41008 5.8751 4.68008V3.97008C5.8751 3.47008 6.1151 3.06008 6.5551 2.81008C6.9951 2.56008 7.48511 2.56008 7.92511 2.81008L8.5551 3.16008C9.2051 3.53008 10.0351 3.31008 10.4151 2.67008L10.7751 2.06008C11.0351 1.63008 11.4551 1.39008 11.9551 1.39008C12.4551 1.39008 12.8851 1.63008 13.1451 2.06008L13.5051 2.67008C13.8751 3.31008 14.7151 3.53008 15.3651 3.16008L15.9951 2.81008C16.4451 2.56008 16.9251 2.56008 17.3751 2.81008C17.8151 3.06008 18.0551 3.47008 18.0551 3.97008V4.68008C18.0551 5.42008 18.6651 6.01008 19.4151 6.01008H20.1451C20.6551 6.01008 21.0751 6.25008 21.3351 6.68008C21.5851 7.11008 21.5851 7.58008 21.3351 8.02008L20.9651 8.63008C20.7851 8.94008 20.7351 9.29008 20.8251 9.64008C20.9151 9.99008 21.1451 10.2801 21.4651 10.4601L22.0951 10.8201C22.5351 11.0701 22.7751 11.4801 22.7751 11.9701C22.7751 12.4601 22.5351 12.8801 22.0951 13.1301L21.4651 13.4901C21.1451 13.6701 20.9251 13.9601 20.8251 14.3101L20.8151 14.2901Z" fill="#282F3A"/>
</g>
<defs>
<clipPath id="clip0_6640_935">
<rect width="24" height="24" fill="white"/>
</clipPath>
</defs>
</svg>
