<svg width="24" height="25" viewBox="0 0 24 25" fill="none" xmlns="http://www.w3.org/2000/svg">
<g clip-path="url(#clip0_6640_925)">
<path d="M12 9.13721C8.36005 9.13721 4.67004 10.1672 4.67004 12.1472V21.2672C4.67004 23.2472 8.36005 24.2772 12 24.2772C15.64 24.2772 19.33 23.2472 19.33 21.2672V12.1472C19.33 10.1772 15.64 9.13721 12 9.13721ZM12 13.9172C8.06005 13.9172 5.91005 12.7472 5.91005 12.1472C5.91005 11.5472 8.06005 10.3772 12 10.3772C15.94 10.3772 18.09 11.5472 18.09 12.1472C18.09 12.7472 15.94 13.9172 12 13.9172ZM12 19.9872C8.06005 19.9872 5.91005 18.8172 5.91005 18.2172V16.8872C7.23005 17.6672 9.53005 18.1472 12 18.1472C14.47 18.1472 16.78 17.6672 18.09 16.8872V18.2172C18.09 18.8172 15.94 19.9872 12 19.9872ZM5.91005 15.1372V13.8872C7.23005 14.6672 9.52005 15.1472 12 15.1472C14.48 15.1472 16.78 14.6672 18.09 13.8872V15.1372C18.09 15.7372 15.94 16.9072 12 16.9072C8.06005 16.9072 5.91005 15.7372 5.91005 15.1372ZM5.91005 19.9672C7.23005 20.7472 9.53005 21.2272 12 21.2272C14.47 21.2272 16.78 20.7472 18.09 19.9672V21.2572C18.09 21.8572 15.94 23.0272 12 23.0272C8.06005 23.0272 5.91005 21.8572 5.91005 21.2572V19.9672Z" fill="#282F3A"/>
<path d="M16.24 22.137C16.5659 22.137 16.83 21.8729 16.83 21.547C16.83 21.2212 16.5659 20.957 16.24 20.957C15.9142 20.957 15.65 21.2212 15.65 21.547C15.65 21.8729 15.9142 22.137 16.24 22.137Z" fill="#282F3A"/>
<path d="M16.24 16.0372C16.57 16.0372 16.83 15.7772 16.83 15.4472C16.83 15.1172 16.57 14.8572 16.24 14.8572C15.91 14.8572 15.65 15.1172 15.65 15.4472C15.65 15.7772 15.91 16.0372 16.24 16.0372Z" fill="#282F3A"/>
<path d="M16.24 19.0872C16.5659 19.0872 16.83 18.8231 16.83 18.4972C16.83 18.1714 16.5659 17.9072 16.24 17.9072C15.9142 17.9072 15.65 18.1714 15.65 18.4972C15.65 18.8231 15.9142 19.0872 16.24 19.0872Z" fill="#282F3A"/>
<path d="M20.4001 7.18711L20.2101 7.06711V7.08711C20.1301 7.04711 20.0501 6.99711 19.9901 6.95711L19.9201 6.91711C19.9201 6.91711 19.9201 6.91711 19.9101 6.91711C20.0001 3.75711 17.7401 1.03711 14.7101 0.697108C12.3601 0.437108 10.0501 1.70711 8.94006 3.87711C8.57006 3.68711 8.28006 3.64711 8.20006 3.63711C6.92006 3.35711 5.62006 3.83711 4.82006 4.90711C4.39006 5.47711 4.13006 6.18711 4.10006 6.91711C2.40006 7.72711 1.31006 9.48711 1.31006 11.4271C1.31006 12.8171 1.88006 13.9671 3.01006 14.8371L3.21006 14.9871L3.97006 14.0071L3.77006 13.8571C2.95006 13.2171 2.55006 12.4271 2.55006 11.4271C2.55006 9.86711 3.49006 8.46711 4.88006 7.92711L4.93006 7.90711C5.19006 7.80711 5.36006 7.54711 5.33006 7.27711C5.33006 7.21711 5.33006 7.14711 5.33006 7.07711C5.33006 6.56711 5.50006 6.05711 5.81006 5.65711C6.32006 4.97711 7.15006 4.66711 7.94006 4.84711C7.98006 4.86711 8.04006 4.86711 8.04006 4.86711C8.04006 4.86711 8.34006 4.90711 8.64006 5.14711L8.67006 5.16711C8.72006 5.20711 8.77006 5.23711 8.82006 5.28711C8.98006 5.41711 9.19006 5.46711 9.38006 5.41711C9.58006 5.36711 9.73006 5.22711 9.81006 5.01711C10.5501 2.96711 12.5201 1.70711 14.5801 1.92711C17.0801 2.20711 18.9101 4.58711 18.6601 7.23711V7.25711C18.6301 7.53711 18.8001 7.80711 19.0701 7.89711C19.1701 7.93711 19.2801 7.97711 19.3901 8.03711C19.5101 8.11711 19.7301 8.22711 19.7601 8.24711C20.8101 8.91711 21.4601 10.1371 21.4601 11.4271C21.4601 12.5571 20.9701 13.4271 19.9501 14.1071L19.7501 14.2471L20.4301 15.2771L20.6301 15.1371C22.0001 14.2371 22.6901 12.9871 22.6901 11.4271C22.6901 9.71711 21.8101 8.09711 20.4001 7.19711V7.18711Z" fill="#282F3A"/>
</g>
<defs>
<clipPath id="clip0_6640_925">
<rect width="24" height="24" fill="white" transform="translate(0 0.470459)"/>
</clipPath>
</defs>
</svg>
