<svg width="24" height="25" viewBox="0 0 24 25" fill="none" xmlns="http://www.w3.org/2000/svg">
<g clip-path="url(#clip0_6640_917)">
<path d="M23.32 5.4654C23.29 5.3754 23.24 5.3054 23.17 5.2354L18.67 0.7354C18.6 0.6754 18.53 0.6254 18.45 0.5854C18.37 0.5454 18.28 0.5354 18.19 0.5354H7.35999C6.76999 0.5354 6.2 0.7654 5.77999 1.1854C5.35999 1.6054 5.12 2.1654 5.12 2.7654V7.3554C4.35 7.5054 3.65 7.9254 3.14 8.5254C2.61 9.1554 2.31 9.9554 2.31 10.7754V12.9054H2.21C1.79 12.9054 1.39 13.0754 1.09 13.3754C0.789995 13.6754 0.619995 14.0754 0.619995 14.4954V19.4454C0.619995 19.8654 0.789995 20.2654 1.09 20.5654C1.39 20.8654 1.79 21.0354 2.21 21.0354H5.12V22.1754C5.12 22.7654 5.35 23.3354 5.77999 23.7554C6.2 24.1754 6.75999 24.4054 7.35999 24.4054H21.14C21.73 24.4054 22.3 24.1754 22.72 23.7554C23.14 23.3354 23.38 22.7754 23.38 22.1754V5.7254C23.38 5.6354 23.36 5.5454 23.33 5.4654H23.32ZM18.87 5.0354V2.8854L21.02 5.0354H18.87ZM3.68 12.9154V10.6754C3.71 10.1454 3.93 9.6554 4.3 9.2854C4.7 8.8854 5.24 8.6654 5.79999 8.6654C6.35999 8.6654 6.89999 8.8854 7.29999 9.2854C7.7 9.6854 7.92 10.2354 7.92 10.7854V12.9154H3.68ZM2.01 19.5354C2.01 19.5354 2 19.5054 2 19.4854V14.5054C2 14.4454 2.02 14.3954 2.06 14.3554C2.1 14.3154 2.15 14.2954 2.21 14.2954H9.41C9.47 14.2954 9.51999 14.3154 9.55999 14.3554C9.59999 14.3954 9.62 14.4454 9.62 14.5054V19.4554C9.62 19.4554 9.62 19.5054 9.59999 19.5354C9.58999 19.5654 9.57 19.5854 9.55 19.6054C9.54 19.6254 9.50999 19.6354 9.47999 19.6454C9.45 19.6554 9.42999 19.6654 9.39999 19.6654H2.2C2.2 19.6654 2.15 19.6654 2.12 19.6454C2.09 19.6354 2.07 19.6154 2.05 19.5954C2.03 19.5754 2.01 19.5554 2 19.5254L2.01 19.5354ZM6.5 21.0354H9.41C9.83 21.0354 10.23 20.8654 10.53 20.5654C10.83 20.2654 11 19.8654 11 19.4454V14.4954C11 14.0754 10.83 13.6754 10.53 13.3754C10.23 13.0754 9.83 12.9054 9.41 12.9054H9.30999V10.7754C9.30999 9.9554 9.02 9.1554 8.48 8.5254C7.97 7.9254 7.27 7.5154 6.5 7.3554V2.7754C6.5 2.5454 6.59 2.3254 6.75 2.1654C6.91 2.0054 7.12999 1.9154 7.35999 1.9154H17.5V5.7254C17.5 5.9054 17.57 6.0854 17.7 6.2154C17.83 6.3454 18 6.4154 18.19 6.4154H22V22.1854C22 22.4154 21.91 22.6354 21.75 22.7954C21.59 22.9554 21.36 23.0454 21.14 23.0454H7.35999C7.12999 23.0454 6.91 22.9554 6.75 22.7954C6.59 22.6354 6.5 22.4154 6.5 22.1854V21.0454V21.0354Z" fill="#282F3A"/>
<path d="M12.56 9.7854H18.18C18.36 9.7854 18.54 9.7154 18.67 9.5854C18.8 9.4554 18.87 9.2854 18.87 9.0954C18.87 8.9054 18.8 8.7354 18.67 8.6054C18.54 8.4754 18.37 8.4054 18.18 8.4054H12.56C12.38 8.4054 12.2 8.4754 12.07 8.6054C11.94 8.7354 11.87 8.9054 11.87 9.0954C11.87 9.2854 11.94 9.4554 12.07 9.5754C12.2 9.7054 12.37 9.7754 12.56 9.7754V9.7854Z" fill="#282F3A"/>
<path d="M18.18 11.7854H14.81C14.63 11.7854 14.45 11.8554 14.32 11.9854C14.19 12.1154 14.12 12.2854 14.12 12.4754C14.12 12.6654 14.19 12.8354 14.32 12.9654C14.45 13.0954 14.62 13.1654 14.81 13.1654H18.18C18.36 13.1654 18.54 13.0954 18.67 12.9654C18.8 12.8354 18.87 12.6654 18.87 12.4754C18.87 12.2854 18.8 12.1154 18.67 11.9854C18.54 11.8554 18.37 11.7854 18.18 11.7854Z" fill="#282F3A"/>
</g>
<defs>
<clipPath id="clip0_6640_917">
<rect width="24" height="24" fill="white" transform="translate(0 0.470459)"/>
</clipPath>
</defs>
</svg>
